HIERARCHY
ROOT hip
{
	OFFSET 0.000000 0.000000 0.000000 
	CHANNELS 6 Xposition Yposition Zposition Xrotation Zrotation Yrotation
	JOINT abdomen
	{
		OFFSET 0.000000 3.402643 0.000000 
		CHANNELS 3 Xrotation Zrotation Yrotation
		JOINT chest
		{
			OFFSET 0.000000 8.438565 -0.680529 
			CHANNELS 3 Xrotation Zrotation Yrotation
			JOINT neck
			{
				OFFSET 0.000000 10.207942 -0.272212 
				CHANNELS 3 Xrotation Zrotation Yrotation
				JOINT head
				{
					OFFSET 0.000000 3.130431 0.000000 
					CHANNELS 3 Xrotation Zrotation Yrotation
					End Site
					{
						OFFSET 0.000000 3.130435 0.000000 
					}
				}
			}
			JOINT lCollar
			{
				OFFSET 3.470700 6.669187 -0.816635 
				CHANNELS 3 Yrotation Zrotation Xrotation
				JOINT lShldr
				{
					OFFSET 3.198488 0.000000 0.000000 
					CHANNELS 3 Zrotation Yrotation Xrotation
					JOINT lForeArm
					{
						OFFSET 10.139888 0.000000 0.000000 
						CHANNELS 3 Yrotation Zrotation Xrotation
						JOINT lHand
						{
							OFFSET 8.370511 0.000000 0.000000 
							CHANNELS 3 Zrotation Yrotation Xrotation
							End Site
							{
								OFFSET 4.083176 0.000000 0.000000 
							}
						}
					}
				}
			}
			JOINT rCollar
			{
				OFFSET -3.470700 6.669187 -0.816635 
				CHANNELS 3 Yrotation Zrotation Xrotation
				JOINT rShldr
				{
					OFFSET -3.198488 0.000000 0.000000 
					CHANNELS 3 Zrotation Yrotation Xrotation
					JOINT rForeArm
					{
						OFFSET -10.139888 0.000000 0.000000 
						CHANNELS 3 Yrotation Zrotation Xrotation
						JOINT rHand
						{
							OFFSET -8.370511 0.000000 0.000000 
							CHANNELS 3 Zrotation Yrotation Xrotation
							End Site
							{
								OFFSET -4.083176 0.000000 0.000000 
							}
						}
					}
				}
			}
		}
	}
	JOINT lThigh
	{
		OFFSET 5.308129 -1.633274 1.361059 
		CHANNELS 3 Xrotation Zrotation Yrotation
		JOINT lShin
		{
			OFFSET -2.041588 -20.007561 0.000000 
			CHANNELS 3 Xrotation Zrotation Yrotation
			JOINT lFoot
			{
				OFFSET 0.000000 -19.190928 -1.224953 
				CHANNELS 3 Xrotation Yrotation Zrotation
				End Site
				{
					OFFSET 0.000000 -2.449906 4.627600 
				}
			}
		}
	}
	JOINT rThigh
	{
		OFFSET -5.308129 -1.633274 1.361059 
		CHANNELS 3 Xrotation Zrotation Yrotation
		JOINT rShin
		{
			OFFSET 2.041588 -20.007561 0.000000 
			CHANNELS 3 Xrotation Zrotation Yrotation
			JOINT rFoot
			{
				OFFSET 0.000000 -19.190928 -1.224953 
				CHANNELS 3 Xrotation Yrotation Zrotation
				End Site
				{
					OFFSET 0.000000 -2.449906 4.627600 
				}
			}
		}
	}
}
MOTION
Frames: 10
Frame Time: 0.033333
9.471595 50.645813 -0.553934 1.064645 -2.897275 -5.398028 0.000000 0.000000 0.000000 -3.222184 -1.201128 -0.488583 2.436905 -1.985632 -4.651392 2.013493 11.405560 -7.211919 -0.019386 -3.136544 -2.317397 -50.822289 14.005336 -19.883095 -26.654131 -0.167912 34.829613 -15.883787 0.288360 -2.985430 -1.306763 5.202730 -2.294533 51.060638 -14.084695 -4.821439 20.489262 3.161612 21.633823 -17.951059 4.979719 -4.691764 -0.089037 10.089589 6.347444 9.179729 -3.376598 10.108458 -8.238289 0.404109 -5.406523 2.088295 -8.657827 -7.937105 0.438523 4.344583 0.764837 0.277680 0.028635 7.480823 
9.494690 50.663692 -0.859732 1.315659 -3.582602 -6.184177 0.000000 0.000000 0.000000 -2.693249 -1.347483 -0.918404 2.716409 -2.022617 -5.286796 1.552870 12.816888 -7.700675 0.117779 -3.960847 -1.829895 -58.053562 16.772167 -24.113867 -29.794893 1.348914 34.264595 -17.561266 1.009640 -3.093849 -2.107817 6.670142 -1.788953 56.492691 -16.258286 -5.485242 23.099068 3.139678 20.843433 -19.026588 1.607579 -4.278601 -1.015831 10.802329 6.448891 10.182348 -3.173782 10.649675 -8.378108 0.409355 -5.610237 0.068057 -8.395461 -7.645532 3.032554 4.845465 2.048395 0.858658 0.068667 7.106428 
9.526696 50.685467 -1.157936 1.612734 -4.394595 -7.620832 0.000000 0.000000 0.000000 -2.221452 -1.279060 -1.103895 3.280022 -2.109318 -5.521375 0.501232 14.039601 -8.224266 0.794465 -4.834478 -1.351767 -64.135300 19.595634 -25.803989 -32.528172 1.297477 28.188662 -15.720645 4.146091 -3.600642 -2.552091 7.385807 -1.347980 62.844398 -18.473255 -8.133318 25.928530 2.565050 16.001177 -18.793749 0.752386 -4.132443 -1.806576 11.546222 6.576403 11.224770 -2.871248 11.901763 -8.581620 0.450552 -5.927281 -3.816378 -8.352688 -7.297289 9.221692 5.533596 4.992532 0.610499 0.073178 6.478516 
9.533315 50.725246 -1.427900 2.199899 -5.139787 -9.109840 0.000000 0.000000 0.000000 -1.897568 -1.132508 -1.328444 3.454500 -2.196800 -5.521746 -0.236078 14.539681 -8.314538 1.461252 -5.933969 -0.981087 -69.009552 22.339912 -26.307417 -34.993011 0.955962 23.898203 -15.216627 6.345946 -3.940151 -2.811697 7.532980 -1.053798 67.944000 -20.295395 -8.569818 27.714729 2.441037 14.105546 -17.847382 0.804984 -4.104186 -2.518518 12.363977 6.934690 11.793933 -2.821926 12.893580 -8.630528 0.438502 -6.105721 -8.414898 -8.492113 -7.271228 16.368731 6.355166 8.491750 1.365076 0.104193 5.361111 
9.483767 50.765369 -1.657389 2.453900 -5.769829 -10.592090 0.000000 0.000000 0.000000 -1.343500 -1.044653 -1.299146 3.642122 -2.110167 -5.277043 -0.630219 13.971647 -7.940213 1.846560 -6.527379 -0.421418 -73.171753 24.996563 -24.957500 -37.174908 0.293636 22.976086 -15.994971 7.246877 -4.100189 -2.798431 7.867877 -0.532435 70.120293 -21.999081 -5.565180 28.567812 3.096887 16.772146 -14.672316 0.166110 -3.919291 -2.665896 13.169847 7.438130 12.065923 -2.852823 13.838788 -8.567692 0.472438 -6.282226 -11.156882 -8.578748 -7.964416 20.762497 7.439659 10.381518 3.107348 0.138596 4.048930 
9.410929 50.788849 -1.811533 2.330828 -6.096838 -11.934053 0.000000 0.000000 0.000000 -0.679559 -1.181406 -1.142939 3.908165 -1.926291 -4.983556 -0.578676 12.683826 -7.267583 1.796597 -6.615917 0.167080 -76.150200 27.761562 -21.579758 -38.775242 -0.672227 26.068798 -17.602020 5.845780 -3.914660 -2.795443 7.935175 0.088294 70.902626 -23.175835 -1.985159 28.253801 3.678092 22.202690 -8.491751 1.512845 -3.778039 -2.265718 13.533138 7.837901 12.024489 -2.771697 14.824381 -8.405671 0.508778 -6.541798 -11.854540 -9.149501 -8.780173 22.013153 8.396935 12.937793 4.761710 0.175311 3.255950 
9.293347 50.756145 -1.892717 2.208946 -6.260211 -12.704820 0.000000 0.000000 0.000000 -0.218410 -1.152056 -1.279627 3.941359 -2.072972 -4.739579 0.048787 11.691231 -6.622351 1.612730 -6.898197 0.581167 -77.429962 30.012653 -17.553362 -39.661682 -1.513993 32.105968 -20.303547 3.436239 -3.501849 -2.923812 7.436790 0.481470 71.728119 -24.653461 -0.147928 28.953732 3.920386 24.890118 -1.590847 1.536674 -3.518928 -2.343534 13.843146 7.998898 12.696346 -2.652684 15.524281 -8.582290 0.512949 -6.919131 -11.518620 -9.955303 -9.089833 20.705591 8.635288 14.828235 5.845787 0.207332 3.796124 
9.155242 50.732414 -1.908120 2.161206 -6.070483 -13.446655 0.000000 0.000000 0.000000 0.003228 -1.103281 -1.181986 3.891893 -2.434695 -4.252087 0.612791 10.972228 -6.197248 1.741122 -7.144340 0.807578 -77.732986 31.211433 -14.229132 -39.596317 -2.310508 36.526993 -21.883686 2.220801 -3.255225 -2.657589 6.717270 0.677642 72.386864 -26.021688 0.131092 29.641422 4.123818 23.814058 3.671393 0.283067 -3.338338 -2.040946 13.686150 7.958157 12.630498 -2.500182 16.285213 -8.563131 0.560428 -7.315703 -11.605838 -10.901176 -9.231857 19.615604 7.967826 12.060455 5.635014 0.208181 3.348279 
8.914309 50.767097 -1.906400 2.115667 -5.727385 -13.879602 0.000000 0.000000 0.000000 0.165408 -1.132655 -0.957230 3.895557 -2.611344 -3.832153 0.392825 9.958852 -5.838943 1.810148 -7.324888 0.945601 -77.339500 31.291092 -11.676076 -38.739143 -2.969668 39.183422 -20.515043 3.393376 -3.482290 -2.502743 6.292952 0.824254 72.051109 -26.346550 0.961097 29.004606 4.548463 22.622261 5.910248 -0.551213 -3.316273 -1.074763 13.557441 8.177547 11.121845 -2.563777 16.471308 -7.841497 0.504868 -7.423284 -11.472357 -11.764413 -9.315891 17.855494 7.049066 6.626005 5.572204 0.162198 2.565111 
8.542753 50.740631 -1.895712 2.257565 -5.433485 -13.872926 0.000000 0.000000 0.000000 0.062030 -1.005773 -0.752180 3.820317 -2.650937 -3.627295 -0.036610 8.816201 -5.572752 1.732743 -7.563313 0.847605 -76.252022 30.719931 -9.924854 -37.712845 -3.413999 40.831924 -18.012293 5.693055 -3.896300 -2.403412 6.161197 0.735956 70.897217 -26.698366 2.470790 28.736084 4.960900 22.648212 4.885497 -1.251374 -3.389351 -0.918871 13.810511 8.438142 10.670709 -2.704981 16.322401 -7.553535 0.526189 -7.771557 -10.338769 -12.270206 -9.297083 13.631433 5.985449 1.221972 7.169786 0.255442 3.455699 
